HIERARCHY
ROOT Hips
{
	OFFSET 0.000000 0.000000 0.000000
	CHANNELS 6 Xposition Yposition Zposition Xrotation Yrotation Zrotation
	JOINT LeftUpLeg_virtual
	{
		OFFSET 0.000000 0.000000 0.000000
		CHANNELS 3 Xrotation Yrotation Zrotation
		JOINT LeftUpLeg
		{
			OFFSET 11.394100 -6.187798 -0.413800
			CHANNELS 3 Xrotation Yrotation Zrotation
			JOINT LeftLeg
			{
				OFFSET 0.430247 -32.302673 3.732800
				CHANNELS 3 Xrotation Yrotation Zrotation
				JOINT LeftFoot
				{
					OFFSET -0.430247 -48.264931 -6.423300
					CHANNELS 3 Xrotation Yrotation Zrotation
					JOINT LeftToeBase
					{
						OFFSET 4.230900 -16.068199 23.438400
						CHANNELS 3 Xrotation Yrotation Zrotation
						JOINT LeftToe_End
						{
							OFFSET 4.510700 0.695400 19.974600
							CHANNELS 3 Xrotation Yrotation Zrotation
							End Site
							{
								OFFSET 0 0 0
							}
						}
					}
				}
			}
		}
	}
	JOINT RightUpLeg_virtual
	{
		OFFSET 0.000000 0.000000 0.000000
		CHANNELS 3 Xrotation Yrotation Zrotation
		JOINT RightUpLeg
		{
			OFFSET -11.333700 -6.187798 -0.413800
			CHANNELS 3 Xrotation Yrotation Zrotation
			JOINT RightLeg
			{
				OFFSET -0.430392 -32.302628 3.733000
				CHANNELS 3 Xrotation Yrotation Zrotation
				JOINT RightFoot
				{
					OFFSET 0.430392 -48.264973 -6.423500
					CHANNELS 3 Xrotation Yrotation Zrotation
					JOINT RightToeBase
					{
						OFFSET -4.230900 -16.068199 23.438400
						CHANNELS 3 Xrotation Yrotation Zrotation
						JOINT RightToe_End
						{
							OFFSET -4.510700 0.695400 19.974600
							CHANNELS 3 Xrotation Yrotation Zrotation
							End Site
							{
								OFFSET 0 0 0
							}
						}
					}
				}
			}
		}
	}
	JOINT Spine_virtual
	{
		OFFSET 0.000000 0.000000 0.000000
		CHANNELS 3 Xrotation Yrotation Zrotation
		JOINT Spine
		{
			OFFSET -0.002400 12.777504 0.315300
			CHANNELS 3 Xrotation Yrotation Zrotation
			JOINT Spine1
			{
				OFFSET -0.002067 5.816869 0.032633
				CHANNELS 3 Xrotation Yrotation Zrotation
				JOINT Spine1_split
				{
					OFFSET -0.002067 5.816869 0.032633
					CHANNELS 3 Xrotation Yrotation Zrotation
					JOINT Spine2
					{
						OFFSET -0.002067 5.816869 0.032633
						CHANNELS 3 Xrotation Yrotation Zrotation
						JOINT Neck_virtual
						{
							OFFSET 0.000000 0.000000 0.000000
							CHANNELS 3 Xrotation Yrotation Zrotation
							JOINT Neck
							{
								OFFSET -0.003700 21.199493 -0.826900
								CHANNELS 3 Xrotation Yrotation Zrotation
								JOINT Head
								{
									OFFSET 0.000000 20.442200 4.834800
									CHANNELS 3 Xrotation Yrotation Zrotation
									JOINT HeadTop_End
									{
										OFFSET 0.000000 34.668396 4.968400
										CHANNELS 3 Xrotation Yrotation Zrotation
										End Site
										{
											OFFSET 0 0 0
										}
									}
								}
							}
						}
						JOINT LeftShoulder_virtual
						{
							OFFSET 0.000000 0.000000 0.000000
							CHANNELS 3 Xrotation Yrotation Zrotation
							JOINT LeftShoulder
							{
								OFFSET 3.288150 8.794197 -1.372250
								CHANNELS 3 Xrotation Yrotation Zrotation
								JOINT LeftShoulder_split
								{
									OFFSET 3.288150 8.794197 -1.372250
									CHANNELS 3 Xrotation Yrotation Zrotation
									JOINT LeftArm
									{
										OFFSET 11.953299 -2.279007 -0.146200
										CHANNELS 3 Xrotation Yrotation Zrotation
										JOINT LeftForeArm
										{
											OFFSET 18.448900 0.000000 0.000000
											CHANNELS 3 Xrotation Yrotation Zrotation
											JOINT LeftHand
											{
												OFFSET 29.527798 0.000000 0.000000
												CHANNELS 3 Xrotation Yrotation Zrotation
												End Site
												{
													OFFSET 0 0 0
												}
											}
										}
									}
								}
							}
						}
						JOINT RightShoulder_virtual
						{
							OFFSET 0.000000 0.000000 0.000000
							CHANNELS 3 Xrotation Yrotation Zrotation
							JOINT RightShoulder
							{
								OFFSET -3.249400 8.794197 -1.372250
								CHANNELS 3 Xrotation Yrotation Zrotation
								JOINT RightShoulder_split
								{
									OFFSET -3.249400 8.794197 -1.372250
									CHANNELS 3 Xrotation Yrotation Zrotation
									JOINT RightArm
									{
										OFFSET -11.953299 -2.279007 -0.146200
										CHANNELS 3 Xrotation Yrotation Zrotation
										JOINT RightForeArm
										{
											OFFSET -18.448900 0.000000 0.000000
											CHANNELS 3 Xrotation Yrotation Zrotation
											JOINT RightHand
											{
												OFFSET -29.527802 0.000000 0.000000
												CHANNELS 3 Xrotation Yrotation Zrotation
												End Site
												{
													OFFSET 0 0 0
												}
											}
										}
									}
								}
							}
						}
					}
				}
			}
		}
	}
}
MOTION
Frames: 10
Frame Time: 0.03333333
5.148220 51.915527 -1.591167 0.000000 0.000000 0.000000 1.100244 -37.100071 6.917603 -82.986170 -18.462520 45.344134 71.903614 11.804124 -5.938999 40.546902 0.594555 -5.085029 -4.009962 0.173170 -3.184235 0.000000 0.000000 0.000000 -3.789051 -31.731297 6.743649 -30.847860 5.133517 -18.345383 113.188966 0.824546 -2.060293 47.450451 5.953408 7.821197 54.632689 -2.737166 -11.281797 0.000000 0.000000 0.000000 -1.603889 -37.903339 6.993138 3.510782 -5.826106 -4.468536 2.178301 -4.139306 -2.315696 0.602275 0.569373 -0.007978 0.000000 0.000000 0.000000 1.433876 -4.450415 -2.121818 0.408180 1.052553 2.529119 1.915332 14.595701 5.698471 0.000000 0.000000 0.000000 1.383620 -4.150693 -2.332335 1.533964 0.335922 -2.034451 -4.532120 1.432153 -0.754497 -0.919294 -15.105245 -49.140021 175.401047 -86.708835 176.211531 0.000000 0.000000 0.000000 2.829923 -4.243235 -2.370569 5.718712 18.058725 3.202859 -1.605469 5.112089 -0.732958 -31.684155 -14.171557 46.273282 179.192786 82.474179 -179.616777 0.000000 0.000000 0.000000 
5.078519 51.882492 -1.583927 0.000000 0.000000 0.000000 1.200226 -37.104033 6.998511 -82.822539 -18.391227 45.568618 71.852340 11.875399 -6.170066 40.529523 0.634210 -4.967192 -4.181314 0.186274 -3.233971 0.000000 0.000000 0.000000 -3.698570 -31.769477 6.822223 -31.067177 5.121212 -18.323246 113.211553 0.819611 -2.044539 47.510946 5.889167 7.714763 55.086183 -2.699237 -10.970920 0.000000 0.000000 0.000000 -1.486801 -37.850395 7.044246 3.460566 -5.735811 -4.693012 2.218645 -4.070056 -2.495915 0.610044 0.555772 0.004254 0.000000 0.000000 0.000000 1.448343 -4.399552 -2.271729 0.276746 0.905836 3.003385 1.798427 14.674299 6.015276 0.000000 0.000000 0.000000 1.385251 -4.071361 -2.497792 1.502474 0.542260 -1.297662 -4.675654 1.289433 -0.920287 -0.857647 -15.174776 -49.464442 177.410557 -86.725289 178.289480 0.000000 0.000000 0.000000 2.821441 -4.180804 -2.565508 5.681432 18.197333 3.729114 -1.696790 5.168299 -0.668771 -30.586782 -13.030460 43.858602 179.541290 78.419779 -179.922305 0.000000 0.000000 0.000000 
4.994808 51.854675 -1.568672 0.000000 0.000000 0.000000 1.286799 -37.094231 7.052098 -82.690758 -18.324945 45.815399 71.816775 11.948362 -6.392682 40.512167 0.589732 -4.873238 -4.302799 0.204196 -3.276933 0.000000 0.000000 0.000000 -3.611849 -31.768166 6.867805 -31.153722 5.080178 -18.269938 113.130308 0.833823 -2.061370 47.567463 5.878525 7.668311 55.460771 -2.654168 -10.671031 0.000000 0.000000 0.000000 -1.394557 -37.744732 7.067741 3.393990 -5.630821 -4.910509 2.264301 -4.008626 -2.667200 0.606382 0.525778 0.017197 0.000000 0.000000 0.000000 1.477995 -4.345358 -2.414150 0.102925 0.732752 3.503523 1.707423 14.712214 6.294959 0.000000 0.000000 0.000000 1.386064 -3.991464 -2.655338 1.451773 0.811034 -0.718091 -4.700917 1.122937 -1.016501 -0.820801 -15.315048 -49.643331 178.995107 -86.694942 179.942263 0.000000 0.000000 0.000000 2.820888 -4.117120 -2.750901 5.623615 18.313723 4.372440 -1.788938 5.169667 -0.563973 -29.832374 -12.137787 41.746994 179.715910 74.731067 179.959133 0.000000 0.000000 0.000000 
4.894937 51.841541 -1.555317 0.000000 0.000000 0.000000 1.345799 -37.066883 7.056031 -82.582410 -18.261004 46.079864 71.784393 12.044207 -6.607004 40.481216 0.495693 -4.767232 -4.381507 0.221483 -3.311881 0.000000 0.000000 0.000000 -3.546048 -31.726796 6.859474 -31.058506 4.985440 -18.174981 112.943598 0.846665 -2.095721 47.562774 5.902097 7.672456 55.685849 -2.610696 -10.424883 0.000000 0.000000 0.000000 -1.331814 -37.597507 7.055429 3.317387 -5.514972 -5.113775 2.320893 -3.948785 -2.825329 0.601422 0.498790 0.035367 0.000000 0.000000 0.000000 1.527934 -4.287378 -2.545849 -0.098146 0.548690 4.029832 1.685965 14.756280 6.491145 0.000000 0.000000 0.000000 1.406398 -3.911631 -2.796894 1.387044 1.107435 -0.249696 -4.610055 0.930769 -1.003223 -0.788660 -15.518176 -49.714362 -179.696212 -86.615459 -178.681601 0.000000 0.000000 0.000000 2.849945 -4.051572 -2.920985 5.539887 18.444603 5.154348 -1.843449 5.085104 -0.456710 -29.103948 -11.253087 39.848707 179.846695 71.517299 179.896446 0.000000 0.000000 0.000000 
4.783535 51.850029 -1.547352 0.000000 0.000000 0.000000 1.382418 -37.020541 7.011895 -82.493256 -18.199553 46.340986 71.759163 12.164506 -6.807215 40.430516 0.373424 -4.640712 -4.436157 0.237235 -3.361666 0.000000 0.000000 0.000000 -3.502267 -31.642941 6.799282 -30.786781 4.810862 -18.041132 112.659087 0.834998 -2.125728 47.454102 5.943591 7.744232 55.684493 -2.580642 -10.272231 0.000000 0.000000 0.000000 -1.294101 -37.419980 7.015169 3.237571 -5.393039 -5.300582 2.388932 -3.886130 -2.970844 0.577308 0.459327 0.033490 0.000000 0.000000 0.000000 1.595393 -4.229043 -2.672295 -0.317575 0.367571 4.568099 1.760532 14.845532 6.565181 0.000000 0.000000 0.000000 1.455709 -3.835680 -2.920852 1.314644 1.394530 0.156567 -4.430043 0.741501 -0.882192 -0.785634 -15.761599 -49.746754 -178.493866 -86.479136 -177.407402 0.000000 0.000000 0.000000 2.917293 -3.990836 -3.076584 5.441083 18.591309 6.000550 -1.873403 4.907861 -0.347345 -28.129086 -10.167963 38.057268 179.963395 68.776282 179.849386 0.000000 0.000000 0.000000 
4.660670 51.877869 -1.546524 0.000000 0.000000 0.000000 1.402456 -36.930143 6.933356 -82.426245 -18.142384 46.564535 71.733140 12.290528 -6.978457 40.374355 0.219847 -4.513731 -4.549053 0.251493 -3.414809 0.000000 0.000000 0.000000 -3.468608 -31.525496 6.711169 -30.386081 4.566291 -17.886864 112.304436 0.802724 -2.151701 47.237957 6.016165 7.912661 55.479926 -2.568971 -10.223316 0.000000 0.000000 0.000000 -1.267887 -37.216413 6.966811 3.159945 -5.272838 -5.474654 2.459740 -3.821045 -3.107947 0.576354 0.430243 0.036763 0.000000 0.000000 0.000000 1.673267 -4.173187 -2.795586 -0.544799 0.214495 5.090684 1.934717 15.021635 6.497824 0.000000 0.000000 0.000000 1.525158 -3.765848 -3.032248 1.239923 1.654070 0.534960 -4.234435 0.599770 -0.724231 -0.819612 -16.023839 -49.806730 -177.284882 -86.312090 -176.124651 0.000000 0.000000 0.000000 3.010717 -3.939652 -3.223868 5.337147 18.736792 6.840454 -1.894496 4.701622 -0.259502 -26.730309 -8.785858 36.321409 -179.901705 66.408256 179.769104 0.000000 0.000000 0.000000 
4.527984 51.923820 -1.544472 0.000000 0.000000 0.000000 1.414665 -36.774712 6.839850 -82.380298 -18.083170 46.733660 71.693231 12.409443 -7.117149 40.336621 0.038489 -4.392066 -4.746174 0.261282 -3.468207 0.000000 0.000000 0.000000 -3.440996 -31.380976 6.620153 -29.934895 4.278493 -17.720369 111.918906 0.760296 -2.177473 46.963677 6.133555 8.188783 55.139694 -2.564463 -10.251784 0.000000 0.000000 0.000000 -1.243714 -36.985273 6.925081 3.085669 -5.160867 -5.645129 2.519258 -3.754739 -3.241420 0.569437 0.392463 0.027916 0.000000 0.000000 0.000000 1.759713 -4.121019 -2.917298 -0.775568 0.108654 5.562796 2.173223 15.289816 6.292777 0.000000 0.000000 0.000000 1.603992 -3.703125 -3.135025 1.168108 1.881022 0.898840 -4.081585 0.529814 -0.606352 -0.880497 -16.297924 -49.941776 -176.138653 -86.136240 -174.911555 0.000000 0.000000 0.000000 3.097867 -3.903536 -3.365828 5.242175 18.859296 7.581844 -1.885494 4.536870 -0.215199 -24.893487 -7.186009 34.726662 -179.771453 64.239732 179.663031 0.000000 0.000000 0.000000 
4.383116 51.978973 -1.534389 0.000000 0.000000 0.000000 1.437140 -36.543240 6.758820 -82.375599 -18.021026 46.846205 71.628440 12.501444 -7.223334 40.354554 -0.167791 -4.298419 -5.003926 0.268766 -3.515744 0.000000 0.000000 0.000000 -3.392361 -31.191439 6.554598 -29.488351 3.987093 -17.543602 111.511205 0.726951 -2.213408 46.691812 6.304508 8.570828 54.721106 -2.555118 -10.317515 0.000000 0.000000 0.000000 -1.203156 -36.712830 6.908356 3.011177 -5.060053 -5.817851 2.554291 -3.690318 -3.371701 0.567159 0.381614 0.006458 0.000000 0.000000 0.000000 1.838498 -4.070282 -3.034645 -1.009781 0.052084 5.949899 2.435499 15.621829 5.977281 0.000000 0.000000 0.000000 1.666811 -3.643288 -3.233202 1.103214 2.067795 1.238935 -3.973763 0.525852 -0.568795 -0.914608 -16.605146 -50.144677 -175.145120 -85.993762 -173.866154 0.000000 0.000000 0.000000 3.151857 -3.877898 -3.501092 5.171279 18.934855 8.153916 -1.847227 4.414268 -0.181117 -22.719745 -5.500121 33.431228 -179.676186 62.184146 179.558720 0.000000 0.000000 0.000000 
4.228083 52.036270 -1.498524 0.000000 0.000000 0.000000 1.481392 -36.255518 6.704615 -82.413247 -17.954044 46.906604 71.522244 12.571139 -7.306441 40.437756 -0.366870 -4.226262 -5.266547 0.273173 -3.546023 0.000000 0.000000 0.000000 -3.308978 -30.961299 6.521757 -29.061837 3.719954 -17.345704 111.079544 0.707868 -2.262013 46.476261 6.522165 9.034692 54.260867 -2.527078 -10.385941 0.000000 0.000000 0.000000 -1.142232 -36.404048 6.919503 2.934108 -4.965368 -5.993840 2.560273 -3.622110 -3.492438 0.587841 0.387092 -0.001453 0.000000 0.000000 0.000000 1.896115 -4.011327 -3.136679 -1.238046 0.044086 6.219895 2.677421 15.974643 5.592885 0.000000 0.000000 0.000000 1.705792 -3.574489 -3.323897 1.049949 2.216652 1.539375 -3.884846 0.566306 -0.594600 -0.848184 -16.980474 -50.372256 -174.358118 -85.956346 -173.055205 0.000000 0.000000 0.000000 3.155829 -3.844274 -3.623084 5.123456 18.977049 8.538174 -1.743888 4.352699 -0.127216 -20.378727 -3.882919 32.543427 -179.642677 60.255888 179.483984 0.000000 0.000000 0.000000 
4.057412 52.089783 -1.446449 0.000000 0.000000 0.000000 1.548290 -35.943976 6.679732 -82.485531 -17.875425 46.941182 71.374008 12.633163 -7.381989 40.559231 -0.517677 -4.161361 -5.440254 0.276197 -3.568649 0.000000 0.000000 0.000000 -3.200630 -30.693327 6.515206 -28.654491 3.468679 -17.113439 110.627672 0.700016 -2.318501 46.349380 6.778136 9.545700 53.737056 -2.477537 -10.445758 0.000000 0.000000 0.000000 -1.065722 -36.069099 6.951893 2.852731 -4.864252 -6.169643 2.539850 -3.539331 -3.595451 0.610250 0.416337 -0.005010 0.000000 0.000000 0.000000 1.926078 -3.930343 -3.217391 -1.445983 0.064075 6.353451 2.867114 16.285164 5.187337 0.000000 0.000000 0.000000 1.714742 -3.483795 -3.399877 1.011787 2.318327 1.776806 -3.803267 0.565321 -0.624625 -0.624646 -17.448389 -50.544397 -173.808589 -86.065178 -172.514459 0.000000 0.000000 0.000000 3.110806 -3.782381 -3.720485 5.098687 19.004643 8.733861 -1.590810 4.287933 -0.055130 -18.083640 -2.399902 32.126102 -179.687538 58.544113 179.466772 0.000000 0.000000 0.000000 
